<svg width="151" height="36" viewBox="0 0 151 36" fill="none" xmlns="http://www.w3.org/2000/svg">
<path d="M22.6602 8.42383H31.5273C31.7292 8.42383 32.1719 10.3835 32.8555 14.3027C33.4609 17.0436 34.3171 21.4089 35.4238 27.3984L35.0039 27.6426H28.959C28.7181 27.6426 28.4674 26.7051 28.207 24.8301C28.0964 24.8301 28.041 24.6934 28.041 24.4199H15.8633C14.4766 25.8587 12.1556 28.5378 8.90039 32.457C8.06055 33.5443 7.25977 34.4264 6.49805 35.1035H0.199219C0.0885417 35.1035 0.0332031 35.0482 0.0332031 34.9375C0.13737 34.612 1.96029 32.457 5.50195 28.4727C5.50195 28.388 10.668 22.3105 21 10.2402C22.0547 9.0293 22.6081 8.42383 22.6602 8.42383ZM22.4062 9.16602C22.3542 9.49805 19.7858 12.5384 14.7012 18.2871C14.5189 18.6322 12.9727 20.4551 10.0625 23.7559C9.69141 24.2376 6.90169 27.5221 1.69336 33.6094V33.6973C1.69336 33.8079 1.77474 33.8633 1.9375 33.8633C2.90755 33.8633 3.57161 33.5312 3.92969 32.8672C15.7656 19.0391 22.3411 11.3861 23.6562 9.9082H30.2773C30.388 9.9082 30.4434 9.85286 30.4434 9.74219V9.66406L30.0332 9.57617H24.0664C23.9036 9.57617 23.4609 9.43945 22.7383 9.16602H22.4062ZM19.5059 20.0254H26.9668V20.1035C26.9668 20.8783 26.4427 21.2656 25.3945 21.2656H21C20.5312 21.2656 19.8411 21.2396 18.9297 21.1875L18.8418 21.3535C19.0632 21.4577 19.3691 21.5098 19.7598 21.5098H27.1328C28.181 21.5098 28.7051 21.015 28.7051 20.0254V19.6055C28.7051 19.1953 28.6237 18.4238 28.4609 17.291H28.373V17.5352C28.4837 18.2448 28.5391 18.7135 28.5391 18.9414C28.5391 19.6055 28.181 19.9375 27.4648 19.9375H27.2109V19.6055C27.2109 18.8633 26.8268 16.6823 26.0586 13.0625H25.2285C24.0892 14.2539 22.403 16.2428 20.1699 19.0293C19.7272 19.3743 19.5059 19.7064 19.5059 20.0254ZM40.6973 8.0918H46.0879C46.166 8.0918 46.2474 8.17318 46.332 8.33594C46.332 8.55729 44.8704 13.0885 41.9473 21.9297C41.9993 22.0339 42.0254 22.1152 42.0254 22.1738H55.043C55.1211 22.1738 55.2025 22.2845 55.2871 22.5059C54.3496 25.39 53.8255 26.9102 53.7148 27.0664C53.5326 27.1771 53.3665 27.2324 53.2168 27.2324H34.3203C34.2096 27.2324 34.1543 27.151 34.1543 26.9883C34.1543 26.7539 36.1432 20.5365 40.1211 8.33594C40.3229 8.17318 40.515 8.0918 40.6973 8.0918ZM40.4531 8.66797L40.6973 9.83008C40.4759 10.5918 38.7637 15.8685 35.5605 25.6602L35.7266 25.7383H35.8145C36.1725 25.7383 36.4199 25.3509 36.5566 24.5762C39.3757 15.8587 41.0065 10.888 41.4492 9.66406L41.9473 9.57617H44.2617C44.3724 9.57617 44.4277 9.52409 44.4277 9.41992L44.2617 9.33203H42.2793C41.7259 9.33203 41.1986 9.11068 40.6973 8.66797H40.4531ZM41.3613 23.3359V23.4238C41.3613 23.5866 41.6673 23.668 42.2793 23.668H53.1289C53.2396 23.668 53.2949 23.6126 53.2949 23.502V23.4238H43.1875C42.8034 23.4238 42.1947 23.3945 41.3613 23.3359ZM111.771 8.42383C115.027 8.66471 116.654 9.13346 116.654 9.83008C116.921 9.97331 117.087 10.5527 117.152 11.5684C117.152 13.0202 116.492 15.1198 115.17 17.8672C114.493 18.987 113.497 19.7324 112.182 20.1035V20.1914C113.23 20.6211 113.754 21.4219 113.754 22.5938C114.477 26.4414 114.968 29.5208 115.229 31.832L114.984 31.998H109.096C108.809 31.998 108.402 30.4095 107.875 27.2324C107.471 24.5762 107.221 23.196 107.123 23.0918C106.628 22.9225 106.299 22.8379 106.137 22.8379H96.4395C96.0293 22.8379 95.7526 23.2546 95.6094 24.0879C94.8932 26.373 94.4505 27.5319 94.2812 27.5645L93.8711 27.6426H88.8906C88.8125 27.6426 88.7311 27.5612 88.6465 27.3984V27.3203C88.6465 27.1771 90.6354 20.9889 94.6133 8.75586L94.9453 8.50195H109.779C110.326 8.50195 110.99 8.47591 111.771 8.42383ZM95.0234 9.08789V9.16602C95.0234 9.48503 95.1081 9.76172 95.2773 9.99609C95.2773 10.1198 93.5358 15.4779 90.0527 26.0703L90.2188 26.1582H90.3066C90.7493 26.1582 90.9707 25.7969 90.9707 25.0742C91.6283 23.1732 93.2852 18.1471 95.9414 9.99609H112.016C113.012 9.99609 113.897 10.1068 114.672 10.3281V10.1621C113.656 9.83008 112.383 9.66406 110.854 9.66406H96.2734C96.0846 9.66406 95.7526 9.47201 95.2773 9.08789H95.0234ZM97.6797 17.7891L97.9238 17.9551H102.318C107.019 17.9551 109.369 17.7044 109.369 17.2031C109.734 16.8711 110.092 15.9889 110.443 14.5566V14.2246C110.443 13.6712 109.753 13.3945 108.373 13.3945H99.584C99.0762 13.3945 98.6888 14.0846 98.4219 15.4648C98.2005 15.9466 97.9531 16.7214 97.6797 17.7891ZM111.684 13.4727V14.0586C111.684 14.8008 111.296 15.7383 110.521 16.8711C109.63 17.3919 109.161 17.7533 109.115 17.9551C108.679 18.7233 107.52 19.1074 105.639 19.1074H97.6797C97.556 19.1074 97.4453 19.0814 97.3477 19.0293C97.2435 19.0814 97.1621 19.1074 97.1035 19.1074V19.2734C97.696 19.3841 98.3307 19.4395 99.0078 19.4395H103.891C108.357 19.4395 110.596 19.0814 110.609 18.3652C110.948 18.222 111.335 17.3366 111.771 15.709L111.938 14.4688C111.892 13.8047 111.807 13.4727 111.684 13.4727ZM149.799 0.132812L150.209 0.220703V0.464844C149.656 2.49609 149.158 4.01628 148.715 5.02539L148.471 5.19141H129.965C129.704 5.19141 129.151 6.68229 128.305 9.66406L122.504 27.3984C122.289 27.5612 122.038 27.6426 121.752 27.6426H116.781C116.508 27.6426 116.342 27.5352 116.283 27.3203L123.412 5.35742L123.168 5.19141H111.146C111.036 5.19141 110.98 5.13607 110.98 5.02539V4.9375C111.866 1.73438 112.445 0.132812 112.719 0.132812H149.799ZM112.807 0.708984V0.962891C112.917 1.49674 112.973 1.79948 112.973 1.87109L112.387 3.69727C112.445 3.69727 112.53 3.72331 112.641 3.77539C112.986 3.77539 113.288 3.16992 113.549 1.95898C113.64 1.73763 113.861 1.62695 114.213 1.62695H148.139C148.249 1.62695 148.305 1.57161 148.305 1.46094V1.37305H114.291C113.946 1.37305 113.533 1.18099 113.051 0.796875C112.947 0.738281 112.865 0.708984 112.807 0.708984ZM124.574 4.77148C124.574 5.25326 124.187 6.55208 123.412 8.66797L117.777 26.0703L117.943 26.1582H118.197C118.393 26.1582 119.109 24.0586 120.346 19.8594C123.275 11.2331 124.74 6.59115 124.74 5.93359V5.19141L124.652 4.77148H124.574Z" fill="white"/>
<path d="M70.4434 8.42383H91.8594C91.9701 8.43685 92.0254 8.49219 92.0254 8.58984C91.9147 9.24089 91.472 10.6471 90.6973 12.8086C90.4954 12.9779 90.3001 13.0625 90.1113 13.0625H69.1152C68.9785 13.0625 68.8939 12.9518 68.8613 12.7305C69.6621 9.85938 70.1895 8.42383 70.4434 8.42383ZM70.4434 8.92188C70.4954 9.24089 70.6061 9.59896 70.7754 9.99609C70.7754 10.0872 70.6094 10.5853 70.2773 11.4902L70.4434 11.5684H70.5215C70.8796 11.5684 71.127 11.181 71.2637 10.4062C71.3743 10.1849 71.4297 10.0189 71.4297 9.9082H89.7012L90.1113 9.83008V9.74219C90.1113 9.63151 90.056 9.57617 89.9453 9.57617H71.7617C71.5664 9.57617 71.2083 9.35807 70.6875 8.92188H70.4434ZM89.3691 15.709C89.4798 15.7285 89.5352 15.7839 89.5352 15.875V15.9629C88.8451 18.5605 88.3763 19.8594 88.1289 19.8594C88.0312 19.9115 87.9206 19.9375 87.7969 19.9375H62.6797C62.6016 19.9375 62.5169 19.8561 62.4258 19.6934C63.1029 17.0371 63.6009 15.709 63.9199 15.709H89.3691ZM63.9199 16.207V16.2949C63.9199 16.4577 64.0013 16.8158 64.1641 17.3691C64.1641 17.4668 64.0566 17.7988 63.8418 18.3652L63.998 18.4434H64.3301C64.4798 18.4434 64.6458 18.0299 64.8281 17.2031H87.2109L87.6309 17.125V17.0371C87.6309 16.9264 87.5755 16.8711 87.4648 16.8711H65.248C65.0918 16.8711 64.7044 16.6497 64.0859 16.207H63.9199ZM57.5332 22.8379H86.9668C87.2402 22.8379 87.4062 22.9486 87.4648 23.1699C86.6185 25.9303 86.1204 27.3398 85.9707 27.3984C85.873 27.4505 85.7624 27.4766 85.6387 27.4766H55.7949C55.6842 27.4766 55.6289 27.3952 55.6289 27.2324C56.4297 24.3613 56.9538 22.9258 57.2012 22.9258C57.2988 22.8672 57.4095 22.8379 57.5332 22.8379ZM57.2891 23.3359V23.5898C57.2891 23.7721 57.3704 24.0749 57.5332 24.498C57.5332 24.5892 57.3672 25.0872 57.0352 25.9922C57.1458 26.0443 57.2305 26.0703 57.2891 26.0703C57.6471 26.0703 57.8945 25.6829 58.0312 24.9082C58.1419 24.6868 58.1973 24.5241 58.1973 24.4199H84.8965L85.4727 24.332V24.0879H58.6172C58.4805 24.0879 58.0378 23.8372 57.2891 23.3359Z" fill="#FF0000"/>
</svg>
