<svg width="303" height="75" viewBox="0 0 303 75" fill="none" xmlns="http://www.w3.org/2000/svg">
<path d="M101.022 22.8662H110.776C110.998 22.8662 111.485 25.0218 112.237 29.333C112.903 32.348 113.845 37.1497 115.062 43.7383L114.601 44.0068H107.951C107.686 44.0068 107.41 42.9756 107.124 40.9131C107.002 40.9131 106.941 40.7627 106.941 40.4619H93.5459C92.0205 42.0446 89.4674 44.9915 85.8867 49.3027C84.9629 50.4987 84.082 51.4691 83.2441 52.2139H76.3154C76.1937 52.2139 76.1328 52.153 76.1328 52.0312C76.2474 51.6732 78.2526 49.3027 82.1484 44.9199C82.1484 44.8268 87.8311 38.1416 99.1963 24.8643C100.356 23.5322 100.965 22.8662 101.022 22.8662ZM100.743 23.6826C100.686 24.0479 97.8607 27.3923 92.2676 33.7158C92.0671 34.0954 90.3662 36.1006 87.165 39.7314C86.7568 40.2614 83.6882 43.8743 77.959 50.5703V50.667C77.959 50.7887 78.0485 50.8496 78.2275 50.8496C79.2946 50.8496 80.0251 50.4844 80.4189 49.7539C93.4385 34.543 100.672 26.1247 102.118 24.499H109.401C109.523 24.499 109.584 24.4382 109.584 24.3164V24.2305L109.133 24.1338H102.569C102.39 24.1338 101.903 23.9834 101.108 23.6826H100.743ZM97.5527 35.6279H105.76V35.7139C105.76 36.5661 105.183 36.9922 104.03 36.9922H99.1963C98.6807 36.9922 97.9215 36.9635 96.9189 36.9062L96.8223 37.0889C97.0658 37.2035 97.4023 37.2607 97.832 37.2607H105.942C107.095 37.2607 107.672 36.7165 107.672 35.6279V35.166C107.672 34.7148 107.582 33.8662 107.403 32.6201H107.307V32.8887C107.428 33.6693 107.489 34.1849 107.489 34.4355C107.489 35.166 107.095 35.5312 106.308 35.5312H106.028V35.166C106.028 34.3496 105.606 31.9505 104.761 27.9688H103.848C102.594 29.2793 100.74 31.4671 98.2832 34.5322C97.7962 34.9118 97.5527 35.277 97.5527 35.6279ZM120.863 22.501H126.793C126.879 22.501 126.968 22.5905 127.062 22.7695C127.062 23.013 125.454 27.9974 122.238 37.7227C122.296 37.8372 122.324 37.9268 122.324 37.9912H136.644C136.729 37.9912 136.819 38.113 136.912 38.3564C135.881 41.529 135.304 43.2012 135.183 43.373C134.982 43.4948 134.799 43.5557 134.635 43.5557H113.849C113.727 43.5557 113.666 43.4661 113.666 43.2871C113.666 43.0293 115.854 36.1901 120.229 22.7695C120.451 22.5905 120.663 22.501 120.863 22.501ZM120.595 23.1348L120.863 24.4131C120.62 25.251 118.736 31.0553 115.213 41.8262L115.396 41.9121H115.492C115.886 41.9121 116.158 41.486 116.309 40.6338C119.41 31.0446 121.203 25.5768 121.69 24.2305L122.238 24.1338H124.784C124.906 24.1338 124.967 24.0765 124.967 23.9619L124.784 23.8652H122.604C121.995 23.8652 121.415 23.6217 120.863 23.1348H120.595ZM121.594 39.2695V39.3662C121.594 39.5452 121.93 39.6348 122.604 39.6348H134.538C134.66 39.6348 134.721 39.5739 134.721 39.4521V39.3662H123.603C123.18 39.3662 122.51 39.334 121.594 39.2695ZM153.584 22.8662H177.142C177.263 22.8805 177.324 22.9414 177.324 23.0488C177.202 23.765 176.715 25.3118 175.863 27.6895C175.641 27.8757 175.426 27.9688 175.219 27.9688H152.123C151.973 27.9688 151.88 27.847 151.844 27.6035C152.725 24.4453 153.305 22.8662 153.584 22.8662ZM153.584 23.4141C153.641 23.765 153.763 24.1589 153.949 24.5957C153.949 24.696 153.767 25.2438 153.401 26.2393L153.584 26.3252H153.67C154.064 26.3252 154.336 25.8991 154.486 25.0469C154.608 24.8034 154.669 24.6208 154.669 24.499H174.768L175.219 24.4131V24.3164C175.219 24.1947 175.158 24.1338 175.036 24.1338H155.034C154.819 24.1338 154.425 23.8939 153.853 23.4141H153.584ZM174.402 30.8799C174.524 30.9014 174.585 30.9622 174.585 31.0625V31.1592C173.826 34.0166 173.31 35.4453 173.038 35.4453C172.931 35.5026 172.809 35.5312 172.673 35.5312H145.044C144.958 35.5312 144.865 35.4417 144.765 35.2627C145.509 32.3408 146.057 30.8799 146.408 30.8799H174.402ZM146.408 31.4277V31.5244C146.408 31.7035 146.498 32.0973 146.677 32.7061C146.677 32.8135 146.559 33.1787 146.322 33.8018L146.494 33.8877H146.859C147.024 33.8877 147.207 33.4329 147.407 32.5234H172.028L172.49 32.4375V32.3408C172.49 32.2191 172.429 32.1582 172.308 32.1582H147.869C147.697 32.1582 147.271 31.9147 146.591 31.4277H146.408ZM139.383 38.7217H171.76C172.061 38.7217 172.243 38.8434 172.308 39.0869C171.377 42.1234 170.829 43.6738 170.664 43.7383C170.557 43.7956 170.435 43.8242 170.299 43.8242H137.471C137.349 43.8242 137.288 43.7347 137.288 43.5557C138.169 40.3975 138.745 38.8184 139.018 38.8184C139.125 38.7539 139.247 38.7217 139.383 38.7217ZM139.114 39.2695V39.5488C139.114 39.7493 139.204 40.0824 139.383 40.5479C139.383 40.6481 139.2 41.196 138.835 42.1914C138.957 42.2487 139.05 42.2773 139.114 42.2773C139.508 42.2773 139.78 41.8512 139.931 40.999C140.052 40.7555 140.113 40.5765 140.113 40.4619H169.482L170.116 40.3652V40.0967H140.575C140.425 40.0967 139.938 39.821 139.114 39.2695ZM199.045 22.8662C202.626 23.1312 204.416 23.6468 204.416 24.4131C204.71 24.5706 204.892 25.208 204.964 26.3252C204.964 27.9222 204.237 30.2318 202.783 33.2539C202.038 34.4857 200.943 35.3057 199.496 35.7139V35.8105C200.649 36.2832 201.226 37.1641 201.226 38.4531C201.505 39.4987 201.809 41.2891 202.139 43.8242L201.87 44.0068H195.07C194.755 44.0068 194.465 42.7572 194.2 40.2578C194.129 39.5345 194.039 39.1156 193.932 39.001C193.387 38.8148 193.026 38.7217 192.847 38.7217H182.18C181.729 38.7217 181.424 39.18 181.267 40.0967C180.479 42.6104 179.992 43.8851 179.806 43.9209L179.354 44.0068H173.876C173.79 44.0068 173.701 43.9173 173.607 43.7383V43.6523C173.607 43.4948 175.795 36.6878 180.171 23.2314L180.536 22.9521H196.854C197.455 22.9521 198.186 22.9235 199.045 22.8662ZM180.622 23.5967V23.6826C180.622 24.0335 180.715 24.3379 180.901 24.5957C180.901 24.7318 178.986 30.6257 175.154 42.2773L175.337 42.374H175.434C175.921 42.374 176.164 41.9766 176.164 41.1816C176.887 39.0905 178.71 33.5618 181.632 24.5957H199.313C200.409 24.5957 201.383 24.7174 202.235 24.9609V24.7783C201.118 24.4131 199.718 24.2305 198.035 24.2305H181.997C181.789 24.2305 181.424 24.0192 180.901 23.5967H180.622ZM183.544 33.168L183.812 33.3506H188.646C193.817 33.3506 196.402 33.0749 196.402 32.5234C196.803 32.1582 197.197 31.1878 197.584 29.6123V29.2471C197.584 28.6383 196.825 28.334 195.307 28.334H185.639C185.08 28.334 184.654 29.0931 184.36 30.6113C184.117 31.1413 183.845 31.9935 183.544 33.168ZM198.948 28.4199V29.0645C198.948 29.8809 198.522 30.9121 197.67 32.1582C196.689 32.7311 196.173 33.1286 196.123 33.3506C195.643 34.1956 194.368 34.6182 192.299 34.6182H183.544C183.408 34.6182 183.286 34.5895 183.179 34.5322C183.064 34.5895 182.975 34.6182 182.91 34.6182V34.8008C183.562 34.9225 184.26 34.9834 185.005 34.9834H190.376C195.289 34.9834 197.752 34.5895 197.767 33.8018C198.139 33.6442 198.565 32.6702 199.045 30.8799L199.228 29.5156C199.177 28.7852 199.084 28.4199 198.948 28.4199ZM240.982 13.7461L241.434 13.8428V14.1113C240.825 16.3457 240.277 18.0179 239.79 19.1279L239.521 19.3105H219.165C218.879 19.3105 218.27 20.9505 217.339 24.2305L210.958 43.7383C210.722 43.9173 210.446 44.0068 210.131 44.0068H204.663C204.362 44.0068 204.18 43.8887 204.115 43.6523L211.957 19.4932L211.688 19.3105H198.465C198.343 19.3105 198.282 19.2497 198.282 19.1279V19.0312C199.256 15.5078 199.894 13.7461 200.194 13.7461H240.982ZM200.291 14.3799V14.6592C200.413 15.2464 200.474 15.5794 200.474 15.6582L199.829 17.667C199.894 17.667 199.987 17.6956 200.108 17.7529C200.488 17.7529 200.821 17.0869 201.107 15.7549C201.208 15.5114 201.451 15.3896 201.838 15.3896H239.156C239.278 15.3896 239.339 15.3288 239.339 15.207V15.1104H201.924C201.544 15.1104 201.09 14.8991 200.56 14.4766C200.445 14.4121 200.355 14.3799 200.291 14.3799ZM213.235 18.8486C213.235 19.3786 212.809 20.8073 211.957 23.1348L205.759 42.2773L205.941 42.374H206.221C206.436 42.374 207.223 40.0645 208.584 35.4453C211.807 25.9564 213.418 20.8503 213.418 20.127V19.3105L213.321 18.8486H213.235Z" fill="#FFFF00"/>
<path d="M92 57H231" stroke="#FFF000" stroke-width="2" stroke-linecap="round"/>
<path d="M97.2981 70.156C96.7694 70.156 96.2906 70.0693 95.8616 69.896C95.4326 69.7183 95.0686 69.4778 94.7696 69.1745C94.4749 68.8668 94.2604 68.518 94.1261 68.128L95.1921 67.738C95.3741 68.141 95.6492 68.4682 96.0176 68.7195C96.3902 68.9665 96.8257 69.09 97.3241 69.09C97.8701 69.09 98.3056 68.96 98.6306 68.7C98.9556 68.4357 99.1181 68.0543 99.1181 67.556C99.1181 67.205 99.0206 66.9103 98.8256 66.672C98.6306 66.4337 98.3771 66.2343 98.0651 66.074C97.7531 65.9093 97.4194 65.762 97.0641 65.632C96.7477 65.515 96.4314 65.385 96.1151 65.242C95.7987 65.099 95.5106 64.93 95.2506 64.735C94.9949 64.5357 94.7891 64.2952 94.6331 64.0135C94.4771 63.7275 94.3991 63.3873 94.3991 62.993C94.3991 62.5857 94.5096 62.213 94.7306 61.875C94.9516 61.5327 95.2701 61.2597 95.6861 61.056C96.1021 60.848 96.6047 60.744 97.1941 60.744C97.6751 60.744 98.0976 60.8155 98.4616 60.9585C98.8299 61.0972 99.1311 61.29 99.3651 61.537C99.6034 61.7797 99.7681 62.057 99.8591 62.369L98.8191 62.72C98.7107 62.4643 98.5114 62.2477 98.2211 62.07C97.9351 61.888 97.5667 61.797 97.1161 61.797C96.6351 61.797 96.2559 61.9032 95.9786 62.1155C95.7056 62.3278 95.5691 62.6203 95.5691 62.993C95.5691 63.2747 95.6601 63.5108 95.8421 63.7015C96.0284 63.8878 96.2711 64.0503 96.5701 64.189C96.8691 64.3277 97.1897 64.462 97.5321 64.592C97.8527 64.7133 98.1734 64.852 98.4941 65.008C98.8191 65.1597 99.1159 65.346 99.3846 65.567C99.6576 65.788 99.8764 66.0588 100.041 66.3795C100.206 66.6958 100.288 67.0793 100.288 67.53C100.288 68.089 100.158 68.5635 99.8981 68.9535C99.6381 69.3435 99.2827 69.6425 98.8321 69.8505C98.3814 70.0542 97.8701 70.156 97.2981 70.156ZM107.854 70.156C107.247 70.156 106.723 70.0065 106.281 69.7075C105.839 69.4085 105.499 68.9968 105.26 68.4725C105.022 67.9482 104.903 67.348 104.903 66.672C104.903 65.9397 105.026 65.3157 105.273 64.8C105.52 64.28 105.865 63.8835 106.307 63.6105C106.749 63.3375 107.265 63.201 107.854 63.201C108.352 63.201 108.809 63.3137 109.225 63.539C109.641 63.76 109.973 64.1045 110.22 64.5725C110.471 65.0362 110.597 65.632 110.597 66.36C110.597 66.464 110.593 66.5853 110.584 66.724C110.58 66.8583 110.571 66.997 110.558 67.14H106.06C106.103 67.543 106.203 67.8962 106.359 68.1995C106.515 68.5028 106.721 68.7412 106.976 68.9145C107.232 69.0835 107.533 69.168 107.88 69.168C108.162 69.168 108.422 69.1182 108.66 69.0185C108.903 68.9188 109.128 68.765 109.336 68.557L109.999 69.298C109.752 69.545 109.444 69.7508 109.076 69.9155C108.712 70.0758 108.305 70.156 107.854 70.156ZM106.047 66.152H109.453C109.453 65.775 109.39 65.4392 109.264 65.1445C109.143 64.8455 108.963 64.6115 108.725 64.4425C108.487 64.2735 108.196 64.189 107.854 64.189C107.373 64.189 106.959 64.345 106.612 64.657C106.27 64.969 106.082 65.4673 106.047 66.152ZM117.714 70.156C117.142 70.156 116.65 70.0173 116.238 69.74C115.826 69.4583 115.51 69.0597 115.289 68.544C115.068 68.024 114.958 67.4043 114.958 66.685C114.958 65.9613 115.07 65.3395 115.296 64.8195C115.521 64.2995 115.842 63.9008 116.258 63.6235C116.678 63.3418 117.181 63.201 117.766 63.201C118.338 63.201 118.823 63.3332 119.222 63.5975C119.62 63.8618 119.911 64.2453 120.093 64.748L119.027 65.138C118.918 64.852 118.756 64.6332 118.539 64.4815C118.327 64.3298 118.073 64.254 117.779 64.254C117.241 64.254 116.83 64.462 116.544 64.878C116.258 65.294 116.115 65.8963 116.115 66.685C116.115 67.4563 116.255 68.05 116.537 68.466C116.819 68.882 117.22 69.09 117.74 69.09C118.073 69.09 118.357 69.0033 118.591 68.83C118.829 68.6567 118.996 68.414 119.092 68.102L120.145 68.453C119.984 68.999 119.692 69.4193 119.267 69.714C118.842 70.0087 118.325 70.156 117.714 70.156ZM127.26 70.156C126.441 70.156 125.832 69.9133 125.434 69.428C125.039 68.9427 124.842 68.1973 124.842 67.192V63.357H125.973V67.361C125.973 67.9243 126.097 68.3555 126.344 68.6545C126.591 68.9535 126.944 69.103 127.403 69.103C127.91 69.103 128.291 68.9578 128.547 68.6675C128.807 68.3772 128.937 67.9503 128.937 67.387V63.357H130.068V70H128.937V69.363C128.725 69.636 128.484 69.8375 128.216 69.9675C127.951 70.0932 127.633 70.156 127.26 70.156ZM135.292 70V63.357H136.423V64.228C136.575 63.89 136.783 63.6343 137.047 63.461C137.316 63.2877 137.632 63.201 137.996 63.201C138.399 63.201 138.741 63.3137 139.023 63.539L138.854 64.605C138.711 64.5053 138.561 64.4338 138.405 64.3905C138.254 64.3428 138.087 64.319 137.905 64.319C137.606 64.319 137.346 64.3992 137.125 64.5595C136.904 64.7198 136.731 64.9452 136.605 65.2355C136.484 65.5258 136.423 65.866 136.423 66.256V70H135.292ZM143.417 70V63.357H144.548V70H143.417ZM143.976 62.148C143.781 62.148 143.614 62.0808 143.476 61.9465C143.341 61.8078 143.274 61.641 143.274 61.446C143.274 61.2423 143.341 61.0712 143.476 60.9325C143.614 60.7895 143.781 60.718 143.976 60.718C144.18 60.718 144.349 60.7895 144.483 60.9325C144.622 61.0712 144.691 61.2423 144.691 61.446C144.691 61.641 144.622 61.8078 144.483 61.9465C144.349 62.0808 144.18 62.148 143.976 62.148ZM151.611 70.156C151.156 70.156 150.807 70.0195 150.564 69.7465C150.326 69.4735 150.207 69.0813 150.207 68.57V64.345H149.128V63.357H150.207V61.16L151.338 60.614V63.357H152.976V64.345H151.338V68.193C151.338 68.5093 151.392 68.7412 151.5 68.8885C151.613 69.0315 151.788 69.103 152.027 69.103C152.33 69.103 152.659 68.986 153.015 68.752L152.885 69.857C152.69 69.961 152.486 70.0368 152.274 70.0845C152.066 70.1322 151.845 70.156 151.611 70.156ZM158.524 72.522L159.538 69.831L157.081 63.357H158.212L159.863 67.881C159.91 67.998 159.949 68.1042 159.98 68.1995C160.01 68.2948 160.04 68.401 160.071 68.518C160.105 68.401 160.138 68.2948 160.168 68.1995C160.199 68.1042 160.235 67.998 160.279 67.881L161.956 63.357H163.113L159.668 72.522H158.524ZM173.584 70.156C173.056 70.156 172.577 70.0693 172.148 69.896C171.719 69.7183 171.355 69.4778 171.056 69.1745C170.761 68.8668 170.547 68.518 170.412 68.128L171.478 67.738C171.66 68.141 171.935 68.4682 172.304 68.7195C172.676 68.9665 173.112 69.09 173.61 69.09C174.156 69.09 174.592 68.96 174.917 68.7C175.242 68.4357 175.404 68.0543 175.404 67.556C175.404 67.205 175.307 66.9103 175.112 66.672C174.917 66.4337 174.663 66.2343 174.351 66.074C174.039 65.9093 173.706 65.762 173.35 65.632C173.034 65.515 172.718 65.385 172.401 65.242C172.085 65.099 171.797 64.93 171.537 64.735C171.281 64.5357 171.075 64.2952 170.919 64.0135C170.763 63.7275 170.685 63.3873 170.685 62.993C170.685 62.5857 170.796 62.213 171.017 61.875C171.238 61.5327 171.556 61.2597 171.972 61.056C172.388 60.848 172.891 60.744 173.48 60.744C173.961 60.744 174.384 60.8155 174.748 60.9585C175.116 61.0972 175.417 61.29 175.651 61.537C175.89 61.7797 176.054 62.057 176.145 62.369L175.105 62.72C174.997 62.4643 174.798 62.2477 174.507 62.07C174.221 61.888 173.853 61.797 173.402 61.797C172.921 61.797 172.542 61.9032 172.265 62.1155C171.992 62.3278 171.855 62.6203 171.855 62.993C171.855 63.2747 171.946 63.5108 172.128 63.7015C172.315 63.8878 172.557 64.0503 172.856 64.189C173.155 64.3277 173.476 64.462 173.818 64.592C174.139 64.7133 174.46 64.852 174.78 65.008C175.105 65.1597 175.402 65.346 175.671 65.567C175.944 65.788 176.163 66.0588 176.327 66.3795C176.492 66.6958 176.574 67.0793 176.574 67.53C176.574 68.089 176.444 68.5635 176.184 68.9535C175.924 69.3435 175.569 69.6425 175.118 69.8505C174.668 70.0542 174.156 70.156 173.584 70.156ZM182.366 72.522L183.38 69.831L180.923 63.357H182.054L183.705 67.881C183.752 67.998 183.791 68.1042 183.822 68.1995C183.852 68.2948 183.882 68.401 183.913 68.518C183.947 68.401 183.98 68.2948 184.01 68.1995C184.04 68.1042 184.077 67.998 184.121 67.881L185.798 63.357H186.955L183.51 72.522H182.366ZM193.482 70.156C193.014 70.156 192.564 70.0563 192.13 69.857C191.701 69.6533 191.35 69.3803 191.077 69.038L191.883 68.349C192.117 68.6003 192.377 68.7953 192.663 68.934C192.949 69.0727 193.231 69.142 193.508 69.142C193.898 69.142 194.202 69.0683 194.418 68.921C194.635 68.7693 194.743 68.5613 194.743 68.297C194.743 68.1237 194.694 67.9677 194.594 67.829C194.499 67.6903 194.338 67.5582 194.113 67.4325C193.892 67.3068 193.595 67.1747 193.222 67.036C192.49 66.763 191.964 66.4662 191.643 66.1455C191.327 65.8248 191.168 65.4283 191.168 64.956C191.168 64.436 191.374 64.0135 191.786 63.6885C192.202 63.3635 192.741 63.201 193.404 63.201C193.859 63.201 194.278 63.2877 194.659 63.461C195.04 63.63 195.367 63.877 195.64 64.202L194.86 64.852C194.462 64.4273 193.972 64.215 193.391 64.215C193.049 64.215 192.778 64.2822 192.579 64.4165C192.384 64.5465 192.286 64.7263 192.286 64.956C192.286 65.177 192.397 65.372 192.618 65.541C192.843 65.7057 193.248 65.8963 193.833 66.113C194.31 66.2863 194.696 66.4748 194.99 66.6785C195.289 66.8822 195.506 67.114 195.64 67.374C195.779 67.634 195.848 67.933 195.848 68.271C195.848 68.856 195.638 69.3175 195.218 69.6555C194.798 69.9892 194.219 70.156 193.482 70.156ZM202.519 70.156C202.064 70.156 201.715 70.0195 201.472 69.7465C201.234 69.4735 201.115 69.0813 201.115 68.57V64.345H200.036V63.357H201.115V61.16L202.246 60.614V63.357H203.884V64.345H202.246V68.193C202.246 68.5093 202.3 68.7412 202.408 68.8885C202.521 69.0315 202.696 69.103 202.935 69.103C203.238 69.103 203.567 68.986 203.923 68.752L203.793 69.857C203.598 69.961 203.394 70.0368 203.182 70.0845C202.974 70.1322 202.753 70.156 202.519 70.156ZM211.206 70.156C210.6 70.156 210.075 70.0065 209.633 69.7075C209.191 69.4085 208.851 68.9968 208.613 68.4725C208.375 67.9482 208.255 67.348 208.255 66.672C208.255 65.9397 208.379 65.3157 208.626 64.8C208.873 64.28 209.217 63.8835 209.659 63.6105C210.101 63.3375 210.617 63.201 211.206 63.201C211.705 63.201 212.162 63.3137 212.578 63.539C212.994 63.76 213.325 64.1045 213.572 64.5725C213.824 65.0362 213.949 65.632 213.949 66.36C213.949 66.464 213.945 66.5853 213.936 66.724C213.932 66.8583 213.923 66.997 213.91 67.14H209.412C209.456 67.543 209.555 67.8962 209.711 68.1995C209.867 68.5028 210.073 68.7412 210.329 68.9145C210.585 69.0835 210.886 69.168 211.232 69.168C211.514 69.168 211.774 69.1182 212.012 69.0185C212.255 68.9188 212.48 68.765 212.688 68.557L213.351 69.298C213.104 69.545 212.797 69.7508 212.428 69.9155C212.064 70.0758 211.657 70.156 211.206 70.156ZM209.399 66.152H212.805C212.805 65.775 212.743 65.4392 212.617 65.1445C212.496 64.8455 212.316 64.6115 212.077 64.4425C211.839 64.2735 211.549 64.189 211.206 64.189C210.725 64.189 210.312 64.345 209.965 64.657C209.623 64.969 209.434 65.4673 209.399 66.152ZM218.7 70V63.357H219.831V63.981C220.022 63.7253 220.267 63.5325 220.566 63.4025C220.869 63.2682 221.205 63.201 221.573 63.201C221.959 63.201 222.308 63.2877 222.62 63.461C222.936 63.63 223.181 63.8683 223.354 64.176C223.558 63.864 223.826 63.6235 224.16 63.4545C224.498 63.2855 224.871 63.201 225.278 63.201C225.993 63.201 226.561 63.422 226.981 63.864C227.406 64.3017 227.618 64.8953 227.618 65.645V70H226.487V65.97C226.487 65.4153 226.37 64.9885 226.136 64.6895C225.906 64.3905 225.577 64.241 225.148 64.241C224.862 64.241 224.611 64.3147 224.394 64.462C224.182 64.6093 224.015 64.8173 223.894 65.086C223.777 65.3503 223.718 65.658 223.718 66.009V70H222.587V65.97C222.587 65.4023 222.474 64.9733 222.249 64.683C222.028 64.3883 221.699 64.241 221.261 64.241C220.819 64.241 220.47 64.3948 220.215 64.7025C219.959 65.0102 219.831 65.4283 219.831 65.957V70H218.7Z" fill="#FFFF00"/>
</svg>
