<svg width="252" height="46" viewBox="0 0 152 36" fill="none" xmlns="http://www.w3.org/2000/svg">
<path d="M23.6113 8.42383H32.4785C32.6803 8.42383 33.123 10.3835 33.8066 14.3027C34.4121 17.0436 35.2682 21.4089 36.375 27.3984L35.9551 27.6426H29.9102C29.6693 27.6426 29.4186 26.7051 29.1582 24.8301C29.0475 24.8301 28.9922 24.6934 28.9922 24.4199H16.8145C15.4277 25.8587 13.1068 28.5378 9.85156 32.457C9.01172 33.5443 8.21094 34.4264 7.44922 35.1035H1.15039C1.03971 35.1035 0.984375 35.0482 0.984375 34.9375C1.08854 34.612 2.91146 32.457 6.45312 28.4727C6.45312 28.388 11.6191 22.3105 21.9512 10.2402C23.0059 9.0293 23.5592 8.42383 23.6113 8.42383ZM23.3574 9.16602C23.3053 9.49805 20.737 12.5384 15.6523 18.2871C15.4701 18.6322 13.9238 20.4551 11.0137 23.7559C10.6426 24.2376 7.85286 27.5221 2.64453 33.6094V33.6973C2.64453 33.8079 2.72591 33.8633 2.88867 33.8633C3.85872 33.8633 4.52279 33.5312 4.88086 32.8672C16.7168 19.0391 23.2923 11.3861 24.6074 9.9082H31.2285C31.3392 9.9082 31.3945 9.85286 31.3945 9.74219V9.66406L30.9844 9.57617H25.0176C24.8548 9.57617 24.4121 9.43945 23.6895 9.16602H23.3574ZM20.457 20.0254H27.918V20.1035C27.918 20.8783 27.3939 21.2656 26.3457 21.2656H21.9512C21.4824 21.2656 20.7923 21.2396 19.8809 21.1875L19.793 21.3535C20.0143 21.4577 20.3203 21.5098 20.7109 21.5098H28.084C29.1322 21.5098 29.6562 21.015 29.6562 20.0254V19.6055C29.6562 19.1953 29.5749 18.4238 29.4121 17.291H29.3242V17.5352C29.4349 18.2448 29.4902 18.7135 29.4902 18.9414C29.4902 19.6055 29.1322 19.9375 28.416 19.9375H28.1621V19.6055C28.1621 18.8633 27.778 16.6823 27.0098 13.0625H26.1797C25.0404 14.2539 23.3542 16.2428 21.1211 19.0293C20.6784 19.3743 20.457 19.7064 20.457 20.0254ZM41.6484 8.0918H47.0391C47.1172 8.0918 47.1986 8.17318 47.2832 8.33594C47.2832 8.55729 45.8216 13.0885 42.8984 21.9297C42.9505 22.0339 42.9766 22.1152 42.9766 22.1738H55.9941C56.0723 22.1738 56.1536 22.2845 56.2383 22.5059C55.3008 25.39 54.7767 26.9102 54.666 27.0664C54.4837 27.1771 54.3177 27.2324 54.168 27.2324H35.2715C35.1608 27.2324 35.1055 27.151 35.1055 26.9883C35.1055 26.7539 37.0944 20.5365 41.0723 8.33594C41.2741 8.17318 41.4661 8.0918 41.6484 8.0918ZM41.4043 8.66797L41.6484 9.83008C41.4271 10.5918 39.7148 15.8685 36.5117 25.6602L36.6777 25.7383H36.7656C37.1237 25.7383 37.3711 25.3509 37.5078 24.5762C40.3268 15.8587 41.9577 10.888 42.4004 9.66406L42.8984 9.57617H45.2129C45.3236 9.57617 45.3789 9.52409 45.3789 9.41992L45.2129 9.33203H43.2305C42.6771 9.33203 42.1497 9.11068 41.6484 8.66797H41.4043ZM42.3125 23.3359V23.4238C42.3125 23.5866 42.6185 23.668 43.2305 23.668H54.0801C54.1908 23.668 54.2461 23.6126 54.2461 23.502V23.4238H44.1387C43.7546 23.4238 43.1458 23.3945 42.3125 23.3359ZM112.723 8.42383C115.978 8.66471 117.605 9.13346 117.605 9.83008C117.872 9.97331 118.038 10.5527 118.104 11.5684C118.104 13.0202 117.443 15.1198 116.121 17.8672C115.444 18.987 114.448 19.7324 113.133 20.1035V20.1914C114.181 20.6211 114.705 21.4219 114.705 22.5938C114.959 23.5443 115.236 25.1719 115.535 27.4766L115.291 27.6426H109.109C108.823 27.6426 108.559 26.5065 108.318 24.2344C108.253 23.5768 108.172 23.196 108.074 23.0918C107.579 22.9225 107.251 22.8379 107.088 22.8379H97.3906C96.9805 22.8379 96.7038 23.2546 96.5605 24.0879C95.8444 26.373 95.4017 27.5319 95.2324 27.5645L94.8223 27.6426H89.8418C89.7637 27.6426 89.6823 27.5612 89.5977 27.3984V27.3203C89.5977 27.1771 91.5866 20.9889 95.5645 8.75586L95.8965 8.50195H110.73C111.277 8.50195 111.941 8.47591 112.723 8.42383ZM95.9746 9.08789V9.16602C95.9746 9.48503 96.0592 9.76172 96.2285 9.99609C96.2285 10.1198 94.487 15.4779 91.0039 26.0703L91.1699 26.1582H91.2578C91.7005 26.1582 91.9219 25.7969 91.9219 25.0742C92.5794 23.1732 94.2363 18.1471 96.8926 9.99609H112.967C113.963 9.99609 114.848 10.1068 115.623 10.3281V10.1621C114.607 9.83008 113.335 9.66406 111.805 9.66406H97.2246C97.0358 9.66406 96.7038 9.47201 96.2285 9.08789H95.9746ZM98.6309 17.7891L98.875 17.9551H103.27C107.97 17.9551 110.32 17.7044 110.32 17.2031C110.685 16.8711 111.043 15.9889 111.395 14.5566V14.2246C111.395 13.6712 110.704 13.3945 109.324 13.3945H100.535C100.027 13.3945 99.64 14.0846 99.373 15.4648C99.1517 15.9466 98.9043 16.7214 98.6309 17.7891ZM112.635 13.4727V14.0586C112.635 14.8008 112.247 15.7383 111.473 16.8711C110.581 17.3919 110.112 17.7533 110.066 17.9551C109.63 18.7233 108.471 19.1074 106.59 19.1074H98.6309C98.5072 19.1074 98.3965 19.0814 98.2988 19.0293C98.1947 19.0814 98.1133 19.1074 98.0547 19.1074V19.2734C98.6471 19.3841 99.2819 19.4395 99.959 19.4395H104.842C109.308 19.4395 111.548 19.0814 111.561 18.3652C111.899 18.222 112.286 17.3366 112.723 15.709L112.889 14.4688C112.843 13.8047 112.758 13.4727 112.635 13.4727ZM150.848 0.132812L151.258 0.220703V0.464844C150.704 2.49609 150.206 4.01628 149.764 5.02539L149.52 5.19141H131.014C130.753 5.19141 130.2 6.68229 129.354 9.66406L123.553 27.3984C123.338 27.5612 123.087 27.6426 122.801 27.6426H117.83C117.557 27.6426 117.391 27.5352 117.332 27.3203L124.461 5.35742L124.217 5.19141H112.195C112.085 5.19141 112.029 5.13607 112.029 5.02539V4.9375C112.915 1.73438 113.494 0.132812 113.768 0.132812H150.848ZM113.855 0.708984V0.962891C113.966 1.49674 114.021 1.79948 114.021 1.87109L113.436 3.69727C113.494 3.69727 113.579 3.72331 113.689 3.77539C114.035 3.77539 114.337 3.16992 114.598 1.95898C114.689 1.73763 114.91 1.62695 115.262 1.62695H149.188C149.298 1.62695 149.354 1.57161 149.354 1.46094V1.37305H115.34C114.995 1.37305 114.581 1.18099 114.1 0.796875C113.995 0.738281 113.914 0.708984 113.855 0.708984ZM125.623 4.77148C125.623 5.25326 125.236 6.55208 124.461 8.66797L118.826 26.0703L118.992 26.1582H119.246C119.441 26.1582 120.158 24.0586 121.395 19.8594C124.324 11.2331 125.789 6.59115 125.789 5.93359V5.19141L125.701 4.77148H125.623Z" fill="white"/>
<path d="M71.3945 8.42383H92.8105C92.9212 8.43685 92.9766 8.49219 92.9766 8.58984C92.8659 9.24089 92.4232 10.6471 91.6484 12.8086C91.4466 12.9779 91.2513 13.0625 91.0625 13.0625H70.0664C69.9297 13.0625 69.8451 12.9518 69.8125 12.7305C70.6133 9.85938 71.1406 8.42383 71.3945 8.42383ZM71.3945 8.92188C71.4466 9.24089 71.5573 9.59896 71.7266 9.99609C71.7266 10.0872 71.5605 10.5853 71.2285 11.4902L71.3945 11.5684H71.4727C71.8307 11.5684 72.0781 11.181 72.2148 10.4062C72.3255 10.1849 72.3809 10.0189 72.3809 9.9082H90.6523L91.0625 9.83008V9.74219C91.0625 9.63151 91.0072 9.57617 90.8965 9.57617H72.7129C72.5176 9.57617 72.1595 9.35807 71.6387 8.92188H71.3945ZM90.3203 15.709C90.431 15.7285 90.4863 15.7839 90.4863 15.875V15.9629C89.7962 18.5605 89.3275 19.8594 89.0801 19.8594C88.9824 19.9115 88.8717 19.9375 88.748 19.9375H63.6309C63.5527 19.9375 63.4681 19.8561 63.377 19.6934C64.054 17.0371 64.5521 15.709 64.8711 15.709H90.3203ZM64.8711 16.207V16.2949C64.8711 16.4577 64.9525 16.8158 65.1152 17.3691C65.1152 17.4668 65.0078 17.7988 64.793 18.3652L64.9492 18.4434H65.2812C65.431 18.4434 65.597 18.0299 65.7793 17.2031H88.1621L88.582 17.125V17.0371C88.582 16.9264 88.5267 16.8711 88.416 16.8711H66.1992C66.043 16.8711 65.6556 16.6497 65.0371 16.207H64.8711ZM58.4844 22.8379H87.918C88.1914 22.8379 88.3574 22.9486 88.416 23.1699C87.5697 25.9303 87.0716 27.3398 86.9219 27.3984C86.8242 27.4505 86.7135 27.4766 86.5898 27.4766H56.7461C56.6354 27.4766 56.5801 27.3952 56.5801 27.2324C57.3809 24.3613 57.9049 22.9258 58.1523 22.9258C58.25 22.8672 58.3607 22.8379 58.4844 22.8379ZM58.2402 23.3359V23.5898C58.2402 23.7721 58.3216 24.0749 58.4844 24.498C58.4844 24.5892 58.3184 25.0872 57.9863 25.9922C58.097 26.0443 58.1816 26.0703 58.2402 26.0703C58.5983 26.0703 58.8457 25.6829 58.9824 24.9082C59.0931 24.6868 59.1484 24.5241 59.1484 24.4199H85.8477L86.4238 24.332V24.0879H59.5684C59.4316 24.0879 58.9889 23.8372 58.2402 23.3359Z" fill="#FF0000"/>
</svg>
