<svg width="502" height="124" viewBox="0 0 282 74" fill="none" xmlns="http://www.w3.org/2000/svg">
<path d="M90.5225 22.8662H100.276C100.498 22.8662 100.985 25.0218 101.737 29.333C102.403 32.348 103.345 37.1497 104.562 43.7383L104.101 44.0068H97.4512C97.1862 44.0068 96.9105 42.9756 96.624 40.9131C96.5023 40.9131 96.4414 40.7627 96.4414 40.4619H83.0459C81.5205 42.0446 78.9674 44.9915 75.3867 49.3027C74.4629 50.4987 73.582 51.4691 72.7441 52.2139H65.8154C65.6937 52.2139 65.6328 52.153 65.6328 52.0312C65.7474 51.6732 67.7526 49.3027 71.6484 44.9199C71.6484 44.8268 77.3311 38.1416 88.6963 24.8643C89.8564 23.5322 90.4652 22.8662 90.5225 22.8662ZM90.2432 23.6826C90.1859 24.0479 87.3607 27.3923 81.7676 33.7158C81.5671 34.0954 79.8662 36.1006 76.665 39.7314C76.2568 40.2614 73.1882 43.8743 67.459 50.5703V50.667C67.459 50.7887 67.5485 50.8496 67.7275 50.8496C68.7946 50.8496 69.5251 50.4844 69.9189 49.7539C82.9385 34.543 90.1715 26.1247 91.6182 24.499H98.9014C99.0231 24.499 99.084 24.4382 99.084 24.3164V24.2305L98.6328 24.1338H92.0693C91.8903 24.1338 91.4033 23.9834 90.6084 23.6826H90.2432ZM87.0527 35.6279H95.2598V35.7139C95.2598 36.5661 94.6833 36.9922 93.5303 36.9922H88.6963C88.1807 36.9922 87.4215 36.9635 86.4189 36.9062L86.3223 37.0889C86.5658 37.2035 86.9023 37.2607 87.332 37.2607H95.4424C96.5954 37.2607 97.1719 36.7165 97.1719 35.6279V35.166C97.1719 34.7148 97.0824 33.8662 96.9033 32.6201H96.8066V32.8887C96.9284 33.6693 96.9893 34.1849 96.9893 34.4355C96.9893 35.166 96.5954 35.5312 95.8076 35.5312H95.5283V35.166C95.5283 34.3496 95.1058 31.9505 94.2607 27.9688H93.3477C92.0944 29.2793 90.2396 31.4671 87.7832 34.5322C87.2962 34.9118 87.0527 35.277 87.0527 35.6279ZM110.363 22.501H116.293C116.379 22.501 116.468 22.5905 116.562 22.7695C116.562 23.013 114.954 27.9974 111.738 37.7227C111.796 37.8372 111.824 37.9268 111.824 37.9912H126.144C126.229 37.9912 126.319 38.113 126.412 38.3564C125.381 41.529 124.804 43.2012 124.683 43.373C124.482 43.4948 124.299 43.5557 124.135 43.5557H103.349C103.227 43.5557 103.166 43.4661 103.166 43.2871C103.166 43.0293 105.354 36.1901 109.729 22.7695C109.951 22.5905 110.163 22.501 110.363 22.501ZM110.095 23.1348L110.363 24.4131C110.12 25.251 108.236 31.0553 104.713 41.8262L104.896 41.9121H104.992C105.386 41.9121 105.658 41.486 105.809 40.6338C108.91 31.0446 110.703 25.5768 111.19 24.2305L111.738 24.1338H114.284C114.406 24.1338 114.467 24.0765 114.467 23.9619L114.284 23.8652H112.104C111.495 23.8652 110.915 23.6217 110.363 23.1348H110.095ZM111.094 39.2695V39.3662C111.094 39.5452 111.43 39.6348 112.104 39.6348H124.038C124.16 39.6348 124.221 39.5739 124.221 39.4521V39.3662H113.103C112.68 39.3662 112.01 39.334 111.094 39.2695ZM188.545 22.8662C192.126 23.1312 193.916 23.6468 193.916 24.4131C194.21 24.5706 194.392 25.208 194.464 26.3252C194.464 27.9222 193.737 30.2318 192.283 33.2539C191.538 34.4857 190.443 35.3057 188.996 35.7139V35.8105C190.149 36.2832 190.726 37.1641 190.726 38.4531C191.005 39.4987 191.309 41.2891 191.639 43.8242L191.37 44.0068H184.57C184.255 44.0068 183.965 42.7572 183.7 40.2578C183.629 39.5345 183.539 39.1156 183.432 39.001C182.887 38.8148 182.526 38.7217 182.347 38.7217H171.68C171.229 38.7217 170.924 39.18 170.767 40.0967C169.979 42.6104 169.492 43.8851 169.306 43.9209L168.854 44.0068H163.376C163.29 44.0068 163.201 43.9173 163.107 43.7383V43.6523C163.107 43.4948 165.295 36.6878 169.671 23.2314L170.036 22.9521H186.354C186.955 22.9521 187.686 22.9235 188.545 22.8662ZM170.122 23.5967V23.6826C170.122 24.0335 170.215 24.3379 170.401 24.5957C170.401 24.7318 168.486 30.6257 164.654 42.2773L164.837 42.374H164.934C165.421 42.374 165.664 41.9766 165.664 41.1816C166.387 39.0905 168.21 33.5618 171.132 24.5957H188.813C189.909 24.5957 190.883 24.7174 191.735 24.9609V24.7783C190.618 24.4131 189.218 24.2305 187.535 24.2305H171.497C171.289 24.2305 170.924 24.0192 170.401 23.5967H170.122ZM173.044 33.168L173.312 33.3506H178.146C183.317 33.3506 185.902 33.0749 185.902 32.5234C186.303 32.1582 186.697 31.1878 187.084 29.6123V29.2471C187.084 28.6383 186.325 28.334 184.807 28.334H175.139C174.58 28.334 174.154 29.0931 173.86 30.6113C173.617 31.1413 173.345 31.9935 173.044 33.168ZM188.448 28.4199V29.0645C188.448 29.8809 188.022 30.9121 187.17 32.1582C186.189 32.7311 185.673 33.1286 185.623 33.3506C185.143 34.1956 183.868 34.6182 181.799 34.6182H173.044C172.908 34.6182 172.786 34.5895 172.679 34.5322C172.564 34.5895 172.475 34.6182 172.41 34.6182V34.8008C173.062 34.9225 173.76 34.9834 174.505 34.9834H179.876C184.789 34.9834 187.252 34.5895 187.267 33.8018C187.639 33.6442 188.065 32.6702 188.545 30.8799L188.728 29.5156C188.677 28.7852 188.584 28.4199 188.448 28.4199ZM230.482 13.7461L230.934 13.8428V14.1113C230.325 16.3457 229.777 18.0179 229.29 19.1279L229.021 19.3105H208.665C208.379 19.3105 207.77 20.9505 206.839 24.2305L200.458 43.7383C200.222 43.9173 199.946 44.0068 199.631 44.0068H194.163C193.862 44.0068 193.68 43.8887 193.615 43.6523L201.457 19.4932L201.188 19.3105H187.965C187.843 19.3105 187.782 19.2497 187.782 19.1279V19.0312C188.756 15.5078 189.394 13.7461 189.694 13.7461H230.482ZM189.791 14.3799V14.6592C189.913 15.2464 189.974 15.5794 189.974 15.6582L189.329 17.667C189.394 17.667 189.487 17.6956 189.608 17.7529C189.988 17.7529 190.321 17.0869 190.607 15.7549C190.708 15.5114 190.951 15.3896 191.338 15.3896H228.656C228.778 15.3896 228.839 15.3288 228.839 15.207V15.1104H191.424C191.044 15.1104 190.59 14.8991 190.06 14.4766C189.945 14.4121 189.855 14.3799 189.791 14.3799ZM202.735 18.8486C202.735 19.3786 202.309 20.8073 201.457 23.1348L195.259 42.2773L195.441 42.374H195.721C195.936 42.374 196.723 40.0645 198.084 35.4453C201.307 25.9564 202.918 20.8503 202.918 20.127V19.3105L202.821 18.8486H202.735Z" fill="white"/>
<path d="M143.084 22.8662H166.642C166.763 22.8805 166.824 22.9414 166.824 23.0488C166.702 23.765 166.215 25.3118 165.363 27.6895C165.141 27.8757 164.926 27.9688 164.719 27.9688H141.623C141.473 27.9688 141.38 27.847 141.344 27.6035C142.225 24.4453 142.805 22.8662 143.084 22.8662ZM143.084 23.4141C143.141 23.765 143.263 24.1589 143.449 24.5957C143.449 24.696 143.267 25.2438 142.901 26.2393L143.084 26.3252H143.17C143.564 26.3252 143.836 25.8991 143.986 25.0469C144.108 24.8034 144.169 24.6208 144.169 24.499H164.268L164.719 24.4131V24.3164C164.719 24.1947 164.658 24.1338 164.536 24.1338H144.534C144.319 24.1338 143.925 23.8939 143.353 23.4141H143.084ZM163.902 30.8799C164.024 30.9014 164.085 30.9622 164.085 31.0625V31.1592C163.326 34.0166 162.81 35.4453 162.538 35.4453C162.431 35.5026 162.309 35.5312 162.173 35.5312H134.544C134.458 35.5312 134.365 35.4417 134.265 35.2627C135.009 32.3408 135.557 30.8799 135.908 30.8799H163.902ZM135.908 31.4277V31.5244C135.908 31.7035 135.998 32.0973 136.177 32.7061C136.177 32.8135 136.059 33.1787 135.822 33.8018L135.994 33.8877H136.359C136.524 33.8877 136.707 33.4329 136.907 32.5234H161.528L161.99 32.4375V32.3408C161.99 32.2191 161.929 32.1582 161.808 32.1582H137.369C137.197 32.1582 136.771 31.9147 136.091 31.4277H135.908ZM128.883 38.7217H161.26C161.561 38.7217 161.743 38.8434 161.808 39.0869C160.877 42.1234 160.329 43.6738 160.164 43.7383C160.057 43.7956 159.935 43.8242 159.799 43.8242H126.971C126.849 43.8242 126.788 43.7347 126.788 43.5557C127.669 40.3975 128.245 38.8184 128.518 38.8184C128.625 38.7539 128.747 38.7217 128.883 38.7217ZM128.614 39.2695V39.5488C128.614 39.7493 128.704 40.0824 128.883 40.5479C128.883 40.6481 128.7 41.196 128.335 42.1914C128.457 42.2487 128.55 42.2773 128.614 42.2773C129.008 42.2773 129.28 41.8512 129.431 40.999C129.552 40.7555 129.613 40.5765 129.613 40.4619H158.982L159.616 40.3652V40.0967H130.075C129.925 40.0967 129.438 39.821 128.614 39.2695Z" fill="#FF0202"/>
<path d="M76 56H205.366" stroke="#FFFFFD" stroke-width="2" stroke-linecap="round"/>
<path d="M76.803 69.156C76.2744 69.156 75.7955 69.0693 75.3665 68.896C74.9375 68.7183 74.5735 68.4778 74.2745 68.1745C73.9799 67.8668 73.7654 67.518 73.631 67.128L74.697 66.738C74.879 67.141 75.1542 67.4682 75.5225 67.7195C75.8952 67.9665 76.3307 68.09 76.829 68.09C77.375 68.09 77.8105 67.96 78.1355 67.7C78.4605 67.4357 78.623 67.0543 78.623 66.556C78.623 66.205 78.5255 65.9103 78.3305 65.672C78.1355 65.4337 77.882 65.2343 77.57 65.074C77.258 64.9093 76.9244 64.762 76.569 64.632C76.2527 64.515 75.9364 64.385 75.62 64.242C75.3037 64.099 75.0155 63.93 74.7555 63.735C74.4999 63.5357 74.294 63.2952 74.138 63.0135C73.982 62.7275 73.904 62.3873 73.904 61.993C73.904 61.5857 74.0145 61.213 74.2355 60.875C74.4565 60.5327 74.775 60.2597 75.191 60.056C75.607 59.848 76.1097 59.744 76.699 59.744C77.18 59.744 77.6025 59.8155 77.9665 59.9585C78.3349 60.0972 78.636 60.29 78.87 60.537C79.1084 60.7797 79.273 61.057 79.364 61.369L78.324 61.72C78.2157 61.4643 78.0164 61.2477 77.726 61.07C77.44 60.888 77.0717 60.797 76.621 60.797C76.14 60.797 75.7609 60.9032 75.4835 61.1155C75.2105 61.3278 75.074 61.6203 75.074 61.993C75.074 62.2747 75.165 62.5108 75.347 62.7015C75.5334 62.8878 75.776 63.0503 76.075 63.189C76.374 63.3277 76.6947 63.462 77.037 63.592C77.3577 63.7133 77.6784 63.852 77.999 64.008C78.324 64.1597 78.6209 64.346 78.8895 64.567C79.1625 64.788 79.3814 65.0588 79.546 65.3795C79.7107 65.6958 79.793 66.0793 79.793 66.53C79.793 67.089 79.663 67.5635 79.403 67.9535C79.143 68.3435 78.7877 68.6425 78.337 68.8505C77.8864 69.0542 77.375 69.156 76.803 69.156ZM87.3588 69.156C86.7522 69.156 86.2278 69.0065 85.7858 68.7075C85.3438 68.4085 85.0037 67.9968 84.7653 67.4725C84.527 66.9482 84.4078 66.348 84.4078 65.672C84.4078 64.9397 84.5313 64.3157 84.7783 63.8C85.0253 63.28 85.3698 62.8835 85.8118 62.6105C86.2538 62.3375 86.7695 62.201 87.3588 62.201C87.8572 62.201 88.3143 62.3137 88.7303 62.539C89.1463 62.76 89.4778 63.1045 89.7248 63.5725C89.9762 64.0362 90.1018 64.632 90.1018 65.36C90.1018 65.464 90.0975 65.5853 90.0888 65.724C90.0845 65.8583 90.0758 65.997 90.0628 66.14H85.5648C85.6082 66.543 85.7078 66.8962 85.8638 67.1995C86.0198 67.5028 86.2257 67.7412 86.4813 67.9145C86.737 68.0835 87.0382 68.168 87.3848 68.168C87.6665 68.168 87.9265 68.1182 88.1648 68.0185C88.4075 67.9188 88.6328 67.765 88.8408 67.557L89.5038 68.298C89.2568 68.545 88.9492 68.7508 88.5808 68.9155C88.2168 69.0758 87.8095 69.156 87.3588 69.156ZM85.5518 65.152H88.9578C88.9578 64.775 88.895 64.4392 88.7693 64.1445C88.648 63.8455 88.4682 63.6115 88.2298 63.4425C87.9915 63.2735 87.7012 63.189 87.3588 63.189C86.8778 63.189 86.464 63.345 86.1173 63.657C85.775 63.969 85.5865 64.4673 85.5518 65.152ZM97.2185 69.156C96.6465 69.156 96.1547 69.0173 95.743 68.74C95.3313 68.4583 95.015 68.0597 94.794 67.544C94.573 67.024 94.4625 66.4043 94.4625 65.685C94.4625 64.9613 94.5752 64.3395 94.8005 63.8195C95.0258 63.2995 95.3465 62.9008 95.7625 62.6235C96.1828 62.3418 96.6855 62.201 97.2705 62.201C97.8425 62.201 98.3278 62.3332 98.7265 62.5975C99.1252 62.8618 99.4155 63.2453 99.5975 63.748L98.5315 64.138C98.4232 63.852 98.2607 63.6332 98.044 63.4815C97.8317 63.3298 97.5782 63.254 97.2835 63.254C96.7462 63.254 96.3345 63.462 96.0485 63.878C95.7625 64.294 95.6195 64.8963 95.6195 65.685C95.6195 66.4563 95.7603 67.05 96.042 67.466C96.3237 67.882 96.7245 68.09 97.2445 68.09C97.5782 68.09 97.862 68.0033 98.096 67.83C98.3343 67.6567 98.5012 67.414 98.5965 67.102L99.6495 67.453C99.4892 67.999 99.1967 68.4193 98.772 68.714C98.3473 69.0087 97.8295 69.156 97.2185 69.156ZM106.765 69.156C105.946 69.156 105.337 68.9133 104.939 68.428C104.544 67.9427 104.347 67.1973 104.347 66.192V62.357H105.478V66.361C105.478 66.9243 105.602 67.3555 105.849 67.6545C106.096 67.9535 106.449 68.103 106.908 68.103C107.415 68.103 107.796 67.9578 108.052 67.6675C108.312 67.3772 108.442 66.9503 108.442 66.387V62.357H109.573V69H108.442V68.363C108.23 68.636 107.989 68.8375 107.721 68.9675C107.456 69.0932 107.138 69.156 106.765 69.156ZM114.797 69V62.357H115.928V63.228C116.08 62.89 116.288 62.6343 116.552 62.461C116.821 62.2877 117.137 62.201 117.501 62.201C117.904 62.201 118.246 62.3137 118.528 62.539L118.359 63.605C118.216 63.5053 118.066 63.4338 117.91 63.3905C117.759 63.3428 117.592 63.319 117.41 63.319C117.111 63.319 116.851 63.3992 116.63 63.5595C116.409 63.7198 116.236 63.9452 116.11 64.2355C115.989 64.5258 115.928 64.866 115.928 65.256V69H114.797ZM122.922 69V62.357H124.053V69H122.922ZM123.481 61.148C123.286 61.148 123.119 61.0808 122.981 60.9465C122.846 60.8078 122.779 60.641 122.779 60.446C122.779 60.2423 122.846 60.0712 122.981 59.9325C123.119 59.7895 123.286 59.718 123.481 59.718C123.685 59.718 123.854 59.7895 123.988 59.9325C124.127 60.0712 124.196 60.2423 124.196 60.446C124.196 60.641 124.127 60.8078 123.988 60.9465C123.854 61.0808 123.685 61.148 123.481 61.148ZM131.115 69.156C130.66 69.156 130.312 69.0195 130.069 68.7465C129.831 68.4735 129.711 68.0813 129.711 67.57V63.345H128.632V62.357H129.711V60.16L130.842 59.614V62.357H132.48V63.345H130.842V67.193C130.842 67.5093 130.897 67.7412 131.005 67.8885C131.118 68.0315 131.293 68.103 131.531 68.103C131.835 68.103 132.164 67.986 132.519 67.752L132.389 68.857C132.194 68.961 131.991 69.0368 131.778 69.0845C131.57 69.1322 131.349 69.156 131.115 69.156ZM138.029 71.522L139.043 68.831L136.586 62.357H137.717L139.368 66.881C139.415 66.998 139.454 67.1042 139.485 67.1995C139.515 67.2948 139.545 67.401 139.576 67.518C139.61 67.401 139.643 67.2948 139.673 67.1995C139.703 67.1042 139.74 66.998 139.784 66.881L141.461 62.357H142.618L139.173 71.522H138.029ZM153.089 69.156C152.56 69.156 152.082 69.0693 151.653 68.896C151.224 68.7183 150.86 68.4778 150.561 68.1745C150.266 67.8668 150.051 67.518 149.917 67.128L150.983 66.738C151.165 67.141 151.44 67.4682 151.809 67.7195C152.181 67.9665 152.617 68.09 153.115 68.09C153.661 68.09 154.097 67.96 154.422 67.7C154.747 67.4357 154.909 67.0543 154.909 66.556C154.909 66.205 154.812 65.9103 154.617 65.672C154.422 65.4337 154.168 65.2343 153.856 65.074C153.544 64.9093 153.21 64.762 152.855 64.632C152.539 64.515 152.222 64.385 151.906 64.242C151.59 64.099 151.302 63.93 151.042 63.735C150.786 63.5357 150.58 63.2952 150.424 63.0135C150.268 62.7275 150.19 62.3873 150.19 61.993C150.19 61.5857 150.301 61.213 150.522 60.875C150.743 60.5327 151.061 60.2597 151.477 60.056C151.893 59.848 152.396 59.744 152.985 59.744C153.466 59.744 153.889 59.8155 154.253 59.9585C154.621 60.0972 154.922 60.29 155.156 60.537C155.394 60.7797 155.559 61.057 155.65 61.369L154.61 61.72C154.502 61.4643 154.302 61.2477 154.012 61.07C153.726 60.888 153.358 60.797 152.907 60.797C152.426 60.797 152.047 60.9032 151.77 61.1155C151.497 61.3278 151.36 61.6203 151.36 61.993C151.36 62.2747 151.451 62.5108 151.633 62.7015C151.819 62.8878 152.062 63.0503 152.361 63.189C152.66 63.3277 152.981 63.462 153.323 63.592C153.644 63.7133 153.964 63.852 154.285 64.008C154.61 64.1597 154.907 64.346 155.176 64.567C155.449 64.788 155.667 65.0588 155.832 65.3795C155.997 65.6958 156.079 66.0793 156.079 66.53C156.079 67.089 155.949 67.5635 155.689 67.9535C155.429 68.3435 155.074 68.6425 154.623 68.8505C154.172 69.0542 153.661 69.156 153.089 69.156ZM161.87 71.522L162.884 68.831L160.427 62.357H161.558L163.209 66.881C163.257 66.998 163.296 67.1042 163.326 67.1995C163.357 67.2948 163.387 67.401 163.417 67.518C163.452 67.401 163.485 67.2948 163.515 67.1995C163.545 67.1042 163.582 66.998 163.625 66.881L165.302 62.357H166.459L163.014 71.522H161.87ZM172.987 69.156C172.519 69.156 172.069 69.0563 171.635 68.857C171.206 68.6533 170.855 68.3803 170.582 68.038L171.388 67.349C171.622 67.6003 171.882 67.7953 172.168 67.934C172.454 68.0727 172.736 68.142 173.013 68.142C173.403 68.142 173.707 68.0683 173.923 67.921C174.14 67.7693 174.248 67.5613 174.248 67.297C174.248 67.1237 174.199 66.9677 174.099 66.829C174.004 66.6903 173.843 66.5582 173.618 66.4325C173.397 66.3068 173.1 66.1747 172.727 66.036C171.995 65.763 171.469 65.4662 171.148 65.1455C170.832 64.8248 170.673 64.4283 170.673 63.956C170.673 63.436 170.879 63.0135 171.291 62.6885C171.707 62.3635 172.246 62.201 172.909 62.201C173.364 62.201 173.783 62.2877 174.164 62.461C174.545 62.63 174.872 62.877 175.145 63.202L174.365 63.852C173.967 63.4273 173.477 63.215 172.896 63.215C172.554 63.215 172.283 63.2822 172.084 63.4165C171.889 63.5465 171.791 63.7263 171.791 63.956C171.791 64.177 171.902 64.372 172.123 64.541C172.348 64.7057 172.753 64.8963 173.338 65.113C173.815 65.2863 174.201 65.4748 174.495 65.6785C174.794 65.8822 175.011 66.114 175.145 66.374C175.284 66.634 175.353 66.933 175.353 67.271C175.353 67.856 175.143 68.3175 174.723 68.6555C174.303 68.9892 173.724 69.156 172.987 69.156ZM182.024 69.156C181.569 69.156 181.22 69.0195 180.977 68.7465C180.739 68.4735 180.62 68.0813 180.62 67.57V63.345H179.541V62.357H180.62V60.16L181.751 59.614V62.357H183.389V63.345H181.751V67.193C181.751 67.5093 181.805 67.7412 181.913 67.8885C182.026 68.0315 182.201 68.103 182.44 68.103C182.743 68.103 183.072 67.986 183.428 67.752L183.298 68.857C183.103 68.961 182.899 69.0368 182.687 69.0845C182.479 69.1322 182.258 69.156 182.024 69.156ZM190.711 69.156C190.105 69.156 189.58 69.0065 189.138 68.7075C188.696 68.4085 188.356 67.9968 188.118 67.4725C187.88 66.9482 187.76 66.348 187.76 65.672C187.76 64.9397 187.884 64.3157 188.131 63.8C188.378 63.28 188.722 62.8835 189.164 62.6105C189.606 62.3375 190.122 62.201 190.711 62.201C191.21 62.201 191.667 62.3137 192.083 62.539C192.499 62.76 192.83 63.1045 193.077 63.5725C193.329 64.0362 193.454 64.632 193.454 65.36C193.454 65.464 193.45 65.5853 193.441 65.724C193.437 65.8583 193.428 65.997 193.415 66.14H188.917C188.961 66.543 189.06 66.8962 189.216 67.1995C189.372 67.5028 189.578 67.7412 189.834 67.9145C190.09 68.0835 190.391 68.168 190.737 68.168C191.019 68.168 191.279 68.1182 191.517 68.0185C191.76 67.9188 191.985 67.765 192.193 67.557L192.856 68.298C192.609 68.545 192.302 68.7508 191.933 68.9155C191.569 69.0758 191.162 69.156 190.711 69.156ZM188.904 65.152H192.31C192.31 64.775 192.248 64.4392 192.122 64.1445C192.001 63.8455 191.821 63.6115 191.582 63.4425C191.344 63.2735 191.054 63.189 190.711 63.189C190.23 63.189 189.817 63.345 189.47 63.657C189.128 63.969 188.939 64.4673 188.904 65.152ZM198.205 69V62.357H199.336V62.981C199.527 62.7253 199.772 62.5325 200.071 62.4025C200.374 62.2682 200.71 62.201 201.078 62.201C201.464 62.201 201.813 62.2877 202.125 62.461C202.441 62.63 202.686 62.8683 202.859 63.176C203.063 62.864 203.331 62.6235 203.665 62.4545C204.003 62.2855 204.376 62.201 204.783 62.201C205.498 62.201 206.066 62.422 206.486 62.864C206.911 63.3017 207.123 63.8953 207.123 64.645V69H205.992V64.97C205.992 64.4153 205.875 63.9885 205.641 63.6895C205.411 63.3905 205.082 63.241 204.653 63.241C204.367 63.241 204.116 63.3147 203.899 63.462C203.687 63.6093 203.52 63.8173 203.399 64.086C203.282 64.3503 203.223 64.658 203.223 65.009V69H202.092V64.97C202.092 64.4023 201.979 63.9733 201.754 63.683C201.533 63.3883 201.204 63.241 200.766 63.241C200.324 63.241 199.975 63.3948 199.72 63.7025C199.464 64.0102 199.336 64.4283 199.336 64.957V69H198.205Z" fill="white"/>
</svg>
